<svg  xmlns="http://www.w3.org/2000/svg"
 width="500.000000pt" height="500.000000pt" viewBox="0 0 500.000000 500.000000"
 preserveAspectRatio="xMidYMid meet">
<g transform="translate(0.000000,500.000000) scale(0.100000,-0.100000)"
fill="#38FFD1" stroke="none">
<path d="M3557 3881 c-71 -6 -97 -23 -97 -63 0 -24 175 -255 200 -263 28 -9
55 9 90 60 17 25 33 45 36 45 3 0 43 -26 87 -57 160 -112 274 -240 303 -340
27 -93 17 -227 -24 -308 -21 -42 -81 -115 -95 -115 -7 0 -25 20 -41 45 -62 99
-182 166 -329 185 -150 19 -311 -51 -358 -155 -36 -78 -17 -178 43 -231 116
-102 307 -111 554 -25 l86 30 -4 -92 c-6 -117 -32 -180 -100 -242 -114 -103
-307 -150 -448 -109 -99 28 -117 29 -125 3 -9 -28 27 -63 83 -79 71 -21 221
-24 301 -6 261 60 400 245 375 504 l-6 73 55 57 c150 158 179 387 74 586 -44
84 -169 207 -296 290 -102 67 -103 68 -96 99 13 57 10 69 -18 91 -31 23 -121
30 -250 17z m230 -923 c95 -35 211 -164 172 -189 -62 -40 -235 -79 -346 -79
-113 1 -184 38 -213 114 -9 24 -7 36 10 71 49 100 226 140 377 83z"/>
<path d="M3068 3043 c-14 -16 -50 -84 -78 -153 -62 -147 -64 -153 -85 -204
-18 -46 -27 -40 -45 27 -7 26 -16 47 -20 47 -4 0 -14 29 -21 65 -7 35 -16 70
-20 76 -9 15 -96 24 -143 15 l-36 -7 0 -69 c0 -77 -16 -105 -19 -33 -1 48 -6
61 -18 50 -9 -9 14 -181 37 -282 28 -119 68 -240 110 -332 42 -91 45 -92 145
-96 l60 -2 37 70 c20 39 41 90 47 115 5 25 28 81 49 125 22 44 49 117 60 161
18 71 75 201 138 312 l19 33 -30 25 c-57 47 -119 84 -140 84 -12 0 -33 -12
-47 -27z"/>
<path d="M2358 2980 c-34 -20 -56 -143 -59 -325 -1 -66 -5 -124 -9 -130 -7 -9
-10 -32 -23 -150 -2 -11 -8 -39 -15 -62 -11 -36 -17 -43 -38 -43 -19 0 -28 8
-40 37 -13 31 -15 78 -11 297 3 144 8 273 12 289 7 25 4 29 -51 54 -37 17 -82
29 -121 31 -54 4 -62 2 -72 -17 -15 -26 -15 -353 -2 -461 19 -146 75 -273 139
-319 79 -55 189 -54 279 1 74 45 119 108 128 180 4 29 18 95 31 147 30 115 33
131 39 206 3 33 7 85 10 116 l6 56 -53 33 c-29 18 -65 41 -80 51 -30 21 -45
23 -70 9z"/>
<path d="M1272 2950 c-84 -22 -162 -55 -162 -68 0 -12 36 -44 88 -77 37 -25
48 -27 96 -21 29 3 71 12 92 19 67 24 94 28 94 16 0 -12 -14 -26 -160 -159
-263 -239 -321 -304 -324 -362 -1 -28 5 -33 77 -70 65 -33 91 -41 156 -45 54
-4 85 -2 102 8 13 7 43 14 66 15 24 2 80 14 125 28 44 14 92 26 106 26 14 0
39 9 56 19 17 10 60 26 96 35 72 19 100 38 100 72 0 21 -23 54 -38 54 -25 -1
-346 -53 -432 -70 -142 -29 -173 -32 -165 -20 4 6 12 9 18 8 13 -3 109 68 166
122 20 19 78 70 128 113 91 78 178 177 171 196 -10 28 -126 146 -157 158 -58
25 -213 26 -299 3z"/>
</g>
</svg>
